<?xml version="1.0" standalone="no"?>
<!DOCTYPE svg PUBLIC "-//W3C//DTD SVG 20010904//EN"
 "http://www.w3.org/TR/2001/REC-SVG-20010904/DTD/svg10.dtd">
<svg version="1.0" xmlns="http://www.w3.org/2000/svg"
 width="189.000000pt" height="189.000000pt" viewBox="0 0 189.000000 189.000000"
 preserveAspectRatio="xMidYMid meet">
<metadata>
Created by potrace 1.10, written by Peter Selinger 2001-2011
</metadata>
<g transform="translate(0.000000,189.000000) scale(0.100000,-0.100000)"
fill="#000000" stroke="none">
<path d="M305 1600 c154 -154 281 -280 282 -280 2 0 3 126 3 280 l0 280 -282
0 -283 0 280 -280z"/>
<path d="M630 1577 l0 -302 153 -153 c84 -83 157 -152 162 -152 6 0 215 205
465 455 l455 455 -618 0 -617 0 0 -303z"/>
<path d="M0 1046 l0 -808 73 68 c39 37 172 165 295 283 l222 215 0 231 0 230
-295 295 -295 295 0 -809z"/>
<path d="M1427 1392 l-457 -457 0 -228 0 -227 243 -240 242 -239 218 -1 217 0
0 925 c0 509 -1 925 -3 925 -1 0 -208 -206 -460 -458z"/>
<path d="M630 1020 l0 -205 143 -143 c78 -78 146 -142 150 -142 4 0 7 89 7
198 l0 197 -150 150 -150 150 0 -205z"/>
<path d="M305 479 l-300 -291 -3 -94 -3 -94 466 0 465 0 0 234 0 234 -155 151
c-86 83 -159 151 -163 151 -4 -1 -142 -132 -307 -291z"/>
<path d="M970 211 l0 -211 217 0 218 0 -100 101 c-55 55 -153 150 -217 211
l-118 110 0 -211z"/>
</g>
</svg>
