<?xml version="1.0" standalone="no"?>
<!DOCTYPE svg PUBLIC "-//W3C//DTD SVG 20010904//EN"
 "http://www.w3.org/TR/2001/REC-SVG-20010904/DTD/svg10.dtd">
<svg version="1.0" xmlns="http://www.w3.org/2000/svg"
 width="450.000000pt" height="452.000000pt" viewBox="0 0 450.000000 452.000000"
 preserveAspectRatio="xMidYMid meet">
<metadata>
Created by potrace 1.10, written by Peter Selinger 2001-2011
</metadata>
<g transform="translate(0.000000,452.000000) scale(0.050000,-0.050000)"
fill="#000000" stroke="none">
<path d="M35 9008 c-8 -8 -15 -2034 -15 -4501 l0 -4487 4490 0 4490 0 0 4490
-1 4490 -4417 0 c-2429 0 -4443 5 -4475 12 -31 6 -64 4 -72 -4z m2826 -1433
c1 -1429 4 -1293 -20 -1255 -11 17 -573 584 -1250 1262 -677 677 -1231 1235
-1231 1240 0 4 563 6 1250 3 l1251 -5 0 -1245z m5822 1255 c9 -9 -4144 -4170
-4163 -4170 -5 0 -332 323 -726 717 l-716 717 -4 1363 -4 1363 2780 5 c1529 3
2790 7 2802 10 12 3 26 1 31 -5z m-7142 -1480 l1329 -1331 -5 -1054 -4 -1053
-56 -53 c-30 -29 -624 -603 -1319 -1276 -695 -673 -1266 -1223 -1270 -1223 -3
0 -6 1647 -6 3660 0 2013 1 3660 1 3660 1 0 600 -599 1330 -1330z m7301 1305
c-1 -8 -2 -1914 -2 -4235 l0 -4220 -976 0 -975 0 -1134 1105 -1134 1105 -1
1030 0 1030 2095 2101 c1894 1900 2132 2133 2127 2084z m-4418 -5120 c3 -514
4 -935 2 -935 -2 0 -97 93 -210 206 -113 113 -415 411 -670 661 l-465 455 -5
954 -6 954 674 -680 674 -679 6 -936z m-919 -310 c289 -283 613 -600 720 -705
l195 -190 1 -1060 1 -1060 -2086 -5 c-1147 -3 -2095 -2 -2106 2 -13 5 -17 165
-12 445 l7 438 633 609 c999 963 1862 1800 1982 1923 61 62 117 113 125 115 8
2 251 -229 540 -512z m1785 -1747 c264 -257 668 -651 897 -874 230 -224 414
-408 410 -410 -4 -2 -450 -1 -992 2 l-984 5 -6 955 c-3 525 -1 962 4 973 4 10
49 -27 100 -82 50 -55 307 -311 571 -569z"/>
</g>
</svg>
