<?xml version="1.0" standalone="no"?>
<!DOCTYPE svg PUBLIC "-//W3C//DTD SVG 20010904//EN"
 "http://www.w3.org/TR/2001/REC-SVG-20010904/DTD/svg10.dtd">
<svg version="1.0" xmlns="http://www.w3.org/2000/svg" viewBox="0 0 201.000000 180.000000" preserveAspectRatio="xMidYMid meet">
<g transform="translate(0.000000,180.000000) scale(0.100000,-0.100000)">
<path d="M911 1615 c-52 -91 -98 -165 -103 -165 -5 0 -40 16 -78 35 -38 19 -72 35 -75 35 -10 0 -5 -39 35 -249 22 -117 40 -227 40 -245 0 -35 -20 -60 -42 -54 -8 2 -65 58 -127 126 -63 67 -116 122 -120 122 -3 0 -15 -29 -25 -65 -10 -36 -22 -67 -25 -69 -4 -3 -68 7 -144 22 -75 14 -139 23 -143 20 -5 -5 30 -154 72 -303 4 -17 -5 -26 -55 -50 -34 -16 -61 -32 -61 -36 0 -5 102 -90 227 -190 126 -100 232 -193 238 -206 6 -17 4 -42 -8 -87 -9 -36 -17 -67 -17 -70 0 -3 91 -6 203 -6 l202 -1 50 -74 c27 -41 52 -75 55 -75 3 0 30 34 59 76 l53 76 205 -7 c197 -7 205 -7 199 11 -38 124 -47 156 -44 159 2 2 111 89 243 195 132 105 241 195 242 198 1 4 -25 20 -57 37 -35 17 -60 36 -60 45 0 8 18 82 40 164 22 83 38 151 36 153 -1 2 -62 -9 -135 -23 -73 -14 -140 -24 -148 -22 -9 2 -24 30 -35 68 -11 36 -22 67 -24 69 -2 2 -56 -43 -120 -99 -157 -139 -174 -153 -179 -148 -3 2 18 123 45 268 28 145 48 266 45 269 -3 2 -42 -13 -86 -34 -67 -33 -82 -37 -89 -25 -6 8 -49 84 -97 168 -48 83 -89 152 -92 152 -3 0 -48 -74 -100 -165z"/>
</g>
</svg>
