<?xml version="1.0" standalone="no"?>
<!DOCTYPE svg PUBLIC "-//W3C//DTD SVG 20010904//EN"
 "http://www.w3.org/TR/2001/REC-SVG-20010904/DTD/svg10.dtd">
<svg version="1.0" xmlns="http://www.w3.org/2000/svg"
 width="300.000000pt" height="300.000000pt" viewBox="0 0 300.000000 300.000000"
 preserveAspectRatio="xMidYMid meet">

<g transform="translate(0.000000,300.000000) scale(0.100000,-0.100000)"
fill="#000000" stroke="none">
<path d="M1390 2994 c-335 -38 -577 -133 -814 -318 -691 -539 -768 -1564 -165
-2201 291 -307 666 -468 1089 -468 349 0 650 104 925 318 457 356 667 959 530
1524 -141 583 -610 1022 -1202 1126 -89 15 -299 26 -363 19z m465 -604 c518
-164 732 -768 422 -1187 -151 -203 -461 -365 -808 -422 -171 -28 -541 -31
-661 -6 -33 8 -35 15 -48 200 -26 379 49 764 199 1014 145 241 301 365 526
417 90 21 281 12 370 -16z"/>
<path d="M1601 1967 l-72 -147 -144 -73 c-80 -39 -145 -74 -144 -77 0 -3 65
-36 144 -74 l143 -69 72 -148 72 -148 74 150 74 150 148 71 147 70 -150 72
-149 72 -72 149 -72 150 -71 -148z"/>
</g>
</svg>
