<?xml version="1.0" standalone="no"?>
<!DOCTYPE svg PUBLIC "-//W3C//DTD SVG 20010904//EN"
 "http://www.w3.org/TR/2001/REC-SVG-20010904/DTD/svg10.dtd">
<svg version="1.0" xmlns="http://www.w3.org/2000/svg"
 width="225.000000pt" height="225.000000pt" viewBox="0 0 225.000000 225.000000"
 preserveAspectRatio="xMidYMid meet">

<g transform="translate(0.000000,225.000000) scale(0.100000,-0.100000)"
fill="#000000" stroke="none">
<path d="M450 1130 l0 -710 120 0 120 0 0 515 c0 283 3 515 8 514 4 0 39 -39
77 -86 39 -48 150 -181 248 -297 252 -298 318 -376 437 -519 l105 -126 148 0
c81 -1 147 3 147 8 0 10 -56 79 -270 330 -91 106 -176 208 -190 225 -13 17
-108 130 -210 251 -102 121 -259 307 -348 413 l-163 192 -114 0 -115 0 0 -710z"/>
</g>
</svg>
