<?xml version="1.0" standalone="no"?>
<!DOCTYPE svg PUBLIC "-//W3C//DTD SVG 20010904//EN"
 "http://www.w3.org/TR/2001/REC-SVG-20010904/DTD/svg10.dtd">
<svg version="1.0" xmlns="http://www.w3.org/2000/svg"
 width="500.000000pt" height="485.000000pt" viewBox="0 0 500.000000 485.000000"
 preserveAspectRatio="xMidYMid meet">

<g transform="translate(0.000000,485.000000) scale(0.100000,-0.100000)"
fill="#000000" stroke="none">
<path d="M810 4732 c-131 -153 -281 -334 -533 -641 -232 -281 -257 -315 -245
-332 7 -10 119 -105 248 -211 129 -107 362 -298 518 -426 155 -128 293 -237
305 -241 13 -5 149 -21 303 -35 153 -15 321 -31 373 -37 52 -5 95 -8 96 -7 8
13 180 224 247 303 l84 99 -88 236 c-139 371 -188 488 -217 518 -32 35 -655
551 -981 814 l-45 36 -65 -76z m457 -528 c164 -135 321 -265 349 -289 50 -42
52 -47 136 -267 47 -122 88 -235 92 -250 5 -22 -4 -39 -53 -100 -32 -40 -83
-99 -112 -132 l-54 -58 -253 21 -254 21 -226 186 c-125 103 -289 237 -364 298
-75 61 -135 116 -133 123 7 22 559 693 570 693 2 0 138 -111 302 -246z"/>
<path d="M2665 3367 c-17 -8 -55 -41 -86 -75 -104 -112 -598 -722 -695 -858
-53 -74 -59 -129 -21 -185 24 -36 238 -213 369 -305 64 -45 83 -54 120 -54 25
0 56 8 75 19 30 19 362 411 656 775 143 177 156 202 142 272 -9 49 -73 115
-236 245 -207 165 -262 193 -324 166z"/>
<path d="M3133 2387 c-95 -100 -293 -349 -293 -368 1 -8 62 -177 138 -376
l137 -362 420 -343 c418 -341 567 -460 615 -491 25 -16 25 -15 76 46 27 34
174 213 325 397 151 184 314 383 362 442 55 67 87 115 87 130 0 26 -10 34
-575 498 -203 167 -398 327 -432 355 l-63 51 -357 28 c-197 15 -367 29 -379
31 -14 3 -32 -8 -61 -38z m536 -287 l235 -20 75 -57 c61 -45 468 -382 629
-520 l34 -28 -148 -180 c-81 -99 -210 -253 -287 -343 l-139 -162 -26 19 c-36
26 -476 386 -589 482 l-89 76 -92 242 -92 243 82 101 c105 132 138 167 157
167 9 0 121 -9 250 -20z"/>
<path d="M1242 2014 c-141 -74 -135 -68 -112 -114 40 -79 178 -249 305 -376
135 -136 237 -219 391 -322 85 -57 272 -158 279 -150 11 13 115 257 115 272 0
2 -53 33 -117 70 -267 151 -549 407 -698 634 -15 23 -34 42 -41 42 -8 0 -62
-25 -122 -56z"/>
<path d="M726 1735 c-55 -30 -104 -59 -109 -64 -25 -25 235 -361 430 -553 222
-221 432 -374 700 -511 120 -61 153 -74 161 -64 18 21 82 194 82 219 0 19 -17
31 -87 68 -395 204 -737 503 -978 853 -39 56 -77 103 -85 105 -8 1 -60 -23
-114 -53z"/>
<path d="M218 1467 c-65 -34 -118 -67 -118 -73 0 -36 252 -380 392 -534 303
-336 629 -588 1003 -777 142 -72 189 -88 204 -69 12 14 104 247 99 251 -2 1
-76 39 -166 85 -179 91 -389 226 -540 346 -126 101 -398 373 -494 494 -42 52
-113 149 -159 214 -46 66 -89 121 -94 122 -6 2 -63 -24 -127 -59z"/>
</g>
</svg>
